<?xml version="1.0" encoding="UTF-8"?>
<svg version="1.1" xmlns="http://www.w3.org/2000/svg" width="256" height="256">
<path d="M0 0 C1.1446875 0.07992188 2.289375 0.15984375 3.46875 0.2421875 C28.40885848 2.64782788 51.26858626 14.10623325 67.72265625 33.09375 C83.74795551 53.54456072 90.48977716 77.52045594 87.76855469 103.18261719 C85.2171099 121.9082385 76.54713045 139.04899482 64 153 C63.38640625 153.69609375 62.7728125 154.3921875 62.140625 155.109375 C47.0080261 171.27668152 24.18419443 182.4253302 1.98046875 183.23828125 C-24.50650121 183.74451842 -47.33805108 176.55241981 -66.828125 158.11328125 C-67.90320313 157.06720703 -67.90320313 157.06720703 -69 156 C-69.63421875 155.41605469 -70.2684375 154.83210937 -70.921875 154.23046875 C-87.05243375 138.99208692 -95.93789568 115.8569888 -97 94 C-97.43607332 72.65200627 -90.66546101 51.485725 -77 35 C-76.32324219 34.16082031 -75.64648438 33.32164063 -74.94921875 32.45703125 C-56.95356752 11.23729625 -28.01193008 -2.03884301 0 0 Z " fill="#E8E8E8" transform="translate(132,31)"/>
<path d="M0 0 C0.99 0 1.98 0 3 0 C4.58645357 3.17290713 4.12078213 6.58825384 4.09765625 10.0703125 C4.0962413 10.86654022 4.09482635 11.66276794 4.09336853 12.48312378 C4.08776345 15.0304538 4.07521014 17.57769647 4.0625 20.125 C4.05748565 21.85025915 4.05292263 23.57551967 4.04882812 25.30078125 C4.03779237 29.53388791 4.02052436 33.76692914 4 38 C6.04224637 37.88485851 8.08380159 37.75742674 10.125 37.625 C11.83042969 37.52058594 11.83042969 37.52058594 13.5703125 37.4140625 C16.95393616 37.00556124 19.81612441 36.19032431 23 35 C21.19516007 39.39929732 18.69877052 40.87047526 14.578125 43.00390625 C10.4525733 44.59786941 6.26661534 45.37746687 2 44 C-1.62135304 41.18680201 -2.78413102 39.49619121 -3.44238281 34.93383789 C-3.60289114 31.17250648 -3.58259519 27.45121261 -3.5 23.6875 C-3.50257812 22.40681641 -3.50515625 21.12613281 -3.5078125 19.80664062 C-3.43333649 12.5712958 -2.74936641 6.7052367 0 0 Z " fill="#BABABC" transform="translate(116,102)"/>
<path d="M0 0 C3.91006464 -0.12552064 7.81931728 -0.21521802 11.73095703 -0.2746582 C13.69996473 -0.31156222 15.66841495 -0.3751618 17.63671875 -0.43945312 C27.08059427 -0.55929926 36.02789046 0.49792506 43.29589844 7.07885742 C45.04846753 8.97950129 46.57043174 10.84708732 48 13 C48.38414062 13.56460938 48.76828125 14.12921875 49.1640625 14.7109375 C50.46900678 18.28428959 50.28819599 21.79064609 50.25 25.5625 C50.26160156 26.71395508 50.26160156 26.71395508 50.2734375 27.88867188 C50.25989467 31.77207821 50.19983549 33.70024677 48 37 C47.97421875 35.9378125 47.9484375 34.875625 47.921875 33.78125 C47.5757516 23.99024082 46.88691789 16.94409562 39.9375 9.5625 C35.99360454 6.12208055 33.60491138 5.89285713 28.5625 6 C24.26195313 6.04674507 20.09084676 5.87081974 15.8125 5.4375 C10.67774227 4.95040836 6.09465598 5.2358016 1 6 C0.67 4.02 0.34 2.04 0 0 Z " fill="#B4B5B7" transform="translate(107,93)"/>
<path d="M0 0 C0.99 0.495 0.99 0.495 2 1 C-13.63399151 23.97061323 -34.69252575 37.81115521 -61.7265625 43.58203125 C-78.04119891 45.66516502 -94.78152111 44.47222666 -110 38 C-106.43649207 36.81216402 -105.24394821 37.29705944 -101.6875 38.3125 C-87.5589323 42.04134717 -74.90711022 43.01317634 -60.6875 39.8125 C-59.67002686 39.58546387 -58.65255371 39.35842773 -57.60424805 39.12451172 C-46.54004158 36.56108097 -37.36523957 32.48669802 -27.69140625 26.55078125 C-25.17697267 25.10197119 -22.71875835 24.00164781 -20 23 C-20 22.34 -20 21.68 -20 21 C-18.1015625 19.37890625 -18.1015625 19.37890625 -15.625 17.5625 C-12.72626071 15.43215668 -11.01934336 14.02901504 -9 11 C-8.34 11 -7.68 11 -7 11 C-6.773125 10.484375 -6.54625 9.96875 -6.3125 9.4375 C-4.5024447 6.07596873 -2.26003596 3.07088856 0 0 Z " fill="#ADACAC" transform="translate(204,170)"/>
<path d="M0 0 C4.6570256 0 6.94178196 1.51726998 10.1875 4.625 C17.1118744 12.11759596 17.48977723 19.10167823 18 29 C18.33 24.38 18.66 19.76 19 15 C19.33 15 19.66 15 20 15 C20.81643651 34.7532278 20.81643651 34.7532278 16 41 C14.05314742 42.72842522 12.33127756 43.78137764 10 45 C9.34 44.67 8.68 44.34 8 44 C8.45890625 43.4740625 8.9178125 42.948125 9.390625 42.40625 C14.20797574 35.20360909 14.58806407 24.93582422 13.5859375 16.5625 C12.74909043 12.90268883 11.3803182 10.88523419 9 8 C8.71125 7.2575 8.4225 6.515 8.125 5.75 C6.40213354 3.06998551 3.95833642 2.88120659 1 2 C0.67 1.34 0.34 0.68 0 0 Z " fill="#C7C8C9" transform="translate(138,98)"/>
<path d="M0 0 C4.12475481 -0.11751438 8.24907118 -0.18768824 12.375 -0.25 C13.53128906 -0.28351563 14.68757813 -0.31703125 15.87890625 -0.3515625 C25.78918719 -0.46354308 34.11907298 1.37507997 41.52734375 8.29296875 C44.78114377 12.06461492 46.83526616 16.02319392 47.25 21 C47.1675 21.66 47.085 22.32 47 23 C45.45214422 20.67821633 44.37719224 18.69401958 43.25 16.1875 C40.45702472 10.62201079 37.16035521 6.52958547 31.171875 4.375 C24.87866683 2.39073579 18.48510014 2.43433201 11.9375 2.3125 C10.69033203 2.27833984 9.44316406 2.24417969 8.15820312 2.20898438 C5.10555873 2.12711269 2.05317966 2.05776372 -1 2 C-0.67 1.34 -0.34 0.68 0 0 Z " fill="#A2A3A4" transform="translate(109,94)"/>
<path d="M0 0 C0.66 0 1.32 0 2 0 C2 12.54 2 25.08 2 38 C6.29 38 10.58 38 15 38 C13 40 13 40 10.21484375 40.23046875 C9.13332031 40.21628906 8.05179688 40.20210937 6.9375 40.1875 C5.31134766 40.17783203 5.31134766 40.17783203 3.65234375 40.16796875 C1 40 1 40 0 39 C-0.08865208 36.1156618 -0.11521296 33.25537842 -0.09765625 30.37109375 C-0.0962413 29.50686295 -0.09482635 28.64263214 -0.09336853 27.75221252 C-0.08775239 24.98060708 -0.07519719 22.2090812 -0.0625 19.4375 C-0.05748708 17.5631522 -0.05292381 15.68880315 -0.04882812 13.81445312 C-0.03777772 9.20960456 -0.0205023 4.60481579 0 0 Z " fill="#AAAAAC" transform="translate(117,103)"/>
<path d="M0 0 C0.33 0 0.66 0 1 0 C1 11.88 1 23.76 1 36 C12.9894349 35.60633906 12.9894349 35.60633906 20 33 C18.19543847 37.39861873 15.68937589 38.85174648 11.59765625 41.02734375 C7.40098768 42.59872792 3.40925347 42.41423049 -1 42 C-1 41.34 -1 40.68 -1 40 C2.96 39.34 6.92 38.68 11 38 C7.37 37.67 3.74 37.34 0 37 C0 24.79 0 12.58 0 0 Z " fill="#CBCCCD" transform="translate(119,104)"/>
<path d="M0 0 C2 2 2 2 2.1953125 5.84375 C2.18200029 7.3959532 2.15812773 8.94809326 2.125 10.5 C2.11597656 11.28503906 2.10695312 12.07007812 2.09765625 12.87890625 C2.07315652 14.91938341 2.03732225 16.9597171 2 19 C2 19.66 2 20.32 2 21 C2.99 20.01 3.98 19.02 5 18 C3.7944117 22.42049045 2.60722528 25.11421977 -1 28 C-3.75 29.25 -3.75 29.25 -6 30 C-5.38125 28.906875 -4.7625 27.81375 -4.125 26.6875 C0.0630718 18.25195113 0.32230593 9.25734269 0 0 Z " fill="#D6D6D8" transform="translate(152,113)"/>
<path d="M0 0 C0.99 0.33 1.98 0.66 3 1 C2.01 1.495 2.01 1.495 1 2 C0.54514665 4.36572542 0.54514665 4.36572542 0.41015625 7.234375 C0.33684082 8.32169922 0.26352539 9.40902344 0.18798828 10.52929688 C-0.11382674 16.10150763 -0.36168466 21.67325914 -0.5625 27.25 C-0.60568359 28.38824219 -0.64886719 29.52648437 -0.69335938 30.69921875 C-0.79798801 33.46606496 -0.9001689 36.23297726 -1 39 C-1.66 38.67 -2.32 38.34 -3 38 C-3.07493036 34.03483891 -3.12896449 30.06995986 -3.16479492 26.10424805 C-3.18705458 24.10255424 -3.22520146 22.10105725 -3.26367188 20.09960938 C-3.31957661 12.70155003 -2.86354817 6.84696163 0 0 Z " fill="#CCCCCE" transform="translate(116,102)"/>
<path d="M0 0 C0.33 0.99 0.66 1.98 1 3 C1.80219971 2.98952637 2.60439941 2.97905273 3.4309082 2.96826172 C7.05807372 2.92674233 10.68518928 2.90068657 14.3125 2.875 C15.57513672 2.85824219 16.83777344 2.84148437 18.13867188 2.82421875 C19.95141602 2.81455078 19.95141602 2.81455078 21.80078125 2.8046875 C22.91622314 2.79421387 24.03166504 2.78374023 25.1809082 2.77294922 C28 3 28 3 31 5 C24.74752459 5.93787131 19.23269191 5.82741367 12.953125 5.19140625 C8.83811441 4.9246926 5.07096154 5.38935577 1 6 C0.67 4.02 0.34 2.04 0 0 Z " fill="#CDCECF" transform="translate(107,93)"/>
<path d="M0 0 C1.134375 0.020625 2.26875 0.04125 3.4375 0.0625 C-2.65109829 6.15109829 -13.51993251 6.09963203 -21.625 6.125 C-22.924375 6.104375 -24.22375 6.08375 -25.5625 6.0625 C-25.5625 5.7325 -25.5625 5.4025 -25.5625 5.0625 C-24.61612671 4.88859741 -24.61612671 4.88859741 -23.65063477 4.71118164 C-20.80799319 4.18649519 -17.9665005 3.65582976 -15.125 3.125 C-14.13177734 2.94259766 -13.13855469 2.76019531 -12.11523438 2.57226562 C-11.17099609 2.39501953 -10.22675781 2.21777344 -9.25390625 2.03515625 C-8.37935791 1.87281494 -7.50480957 1.71047363 -6.60375977 1.54321289 C-0.05487523 0.00096272 -0.05487523 0.00096272 0 0 Z " fill="#B9B9B9" transform="translate(160.5625,205.9375)"/>
<path d="M0 0 C0.66 0.33 1.32 0.66 2 1 C-6.07744875 12.70615034 -6.07744875 12.70615034 -12 17 C-11.1875 14.5625 -11.1875 14.5625 -10 12 C-9.01 11.67 -8.02 11.34 -7 11 C-6.29325371 9.68747118 -5.63815344 8.34721283 -5 7 C-3.3897024 4.62532063 -1.70055366 2.31067596 0 0 Z " fill="#CDCDCC" transform="translate(204,170)"/>
<path d="M0 0 C-5.37330889 3.39366878 -9.86946489 3.32712342 -16 3 C-16 2.34 -16 1.68 -16 1 C-14.0852312 0.63571223 -12.16807707 0.28394694 -10.25 -0.0625 C-9.18265625 -0.25972656 -8.1153125 -0.45695313 -7.015625 -0.66015625 C-4.25228095 -0.97156937 -2.59053383 -0.8991416 0 0 Z " fill="#CCCDCE" transform="translate(134,143)"/>
<path d="M0 0 C-1.38782485 0.8466034 -2.78569397 1.67675339 -4.1875 2.5 C-4.96480469 2.9640625 -5.74210938 3.428125 -6.54296875 3.90625 C-9.24103386 5.10729647 -11.0806982 5.20741043 -14 5 C-10.63156097 2.05261585 -4.40469071 -2.20234535 0 0 Z " fill="#BFBEBE" transform="translate(175,201)"/>
<path d="M0 0 C1.134375 0.020625 2.26875 0.04125 3.4375 0.0625 C1.2619694 2.2380306 -0.12223892 2.78129553 -3 3.75 C-4.17369141 4.15798828 -4.17369141 4.15798828 -5.37109375 4.57421875 C-7.5625 5.0625 -7.5625 5.0625 -10.5625 4.0625 C-9.593125 3.588125 -8.62375 3.11375 -7.625 2.625 C-2.56831395 0.04505814 -2.56831395 0.04505814 0 0 Z " fill="#B0AFAE" transform="translate(160.5625,205.9375)"/>
<path d="M0 0 C0.66 0.33 1.32 0.66 2 1 C-0.97 4.96 -0.97 4.96 -4 9 C-4 5.00095031 -2.27413033 3.19799578 0 0 Z " fill="#D3D3D2" transform="translate(204,170)"/>
</svg>
