<?xml version="1.0" encoding="UTF-8"?>
<svg version="1.1" xmlns="http://www.w3.org/2000/svg" width="256" height="256">
<path d="M0 0 C17.97289162 15.09543367 30.84420466 35.06899072 34.21289062 58.58349609 C36.19182865 85.08728633 31.42806692 108.76133048 14.21289062 129.58349609 C13.52582031 130.43298828 12.83875 131.28248047 12.13085938 132.15771484 C6.56537915 138.70592851 0.28467085 143.7350761 -6.78710938 148.58349609 C-7.58761719 149.13908203 -8.388125 149.69466797 -9.21289062 150.26708984 C-29.06486117 163.11248255 -53.9160785 166.36067029 -76.78710938 161.58349609 C-100.48893384 155.12157893 -119.85343317 141.90679646 -133.78710938 121.58349609 C-134.62048828 120.38273437 -134.62048828 120.38273437 -135.47070312 119.15771484 C-141.6435868 109.61780371 -146.09478287 97.81439016 -147.78710938 86.58349609 C-147.89667969 85.87322266 -148.00625 85.16294922 -148.11914062 84.43115234 C-151.19790149 61.07361988 -145.28098649 37.63001015 -131.58789062 18.51318359 C-129.4050407 15.77795455 -127.14970335 13.1645491 -124.78710938 10.58349609 C-124.05492188 9.78169922 -123.32273437 8.97990234 -122.56835938 8.15380859 C-90.75466357 -25.11614793 -35.96725301 -28.50847021 0 0 Z " fill="#373737" transform="translate(184.787109375,47.41650390625)"/>
<path d="M0 0 C1.65612305 -0.0309375 1.65612305 -0.0309375 3.34570312 -0.0625 C13.72412011 -0.11154155 22.85612228 1.40960033 30.65234375 8.74609375 C36.12273315 14.537484 38.15138555 20.73056948 38.5 28.625 C38.28894129 35.78089519 35.93201841 41.9423905 32.4375 48.125 C25.93592134 53.94220196 18.36588941 56.37406047 9.80078125 56.3828125 C8.60001953 56.38410156 7.39925781 56.38539063 6.16210938 56.38671875 C4.91236328 56.38285156 3.66261719 56.37898438 2.375 56.375 C1.11365234 56.37886719 -0.14769531 56.38273437 -1.44726562 56.38671875 C-2.64416016 56.38542969 -3.84105469 56.38414062 -5.07421875 56.3828125 C-6.72490356 56.38112061 -6.72490356 56.38112061 -8.40893555 56.37939453 C-10.9375 56.25 -10.9375 56.25 -11.9375 55.25 C-12.06570471 53.56837171 -12.12588818 51.88150172 -12.15869141 50.1953125 C-12.18186432 49.11749512 -12.20503723 48.03967773 -12.22891235 46.92919922 C-12.2487619 45.75631348 -12.26861145 44.58342773 -12.2890625 43.375 C-12.32379166 41.58280029 -12.32379166 41.58280029 -12.35922241 39.75439453 C-12.40694372 37.22237524 -12.45216756 34.69030785 -12.49511719 32.15820312 C-12.56221123 28.2667489 -12.63994023 24.37560756 -12.71875 20.484375 C-12.76366261 18.03126167 -12.80795439 15.57813687 -12.8515625 13.125 C-12.87546051 11.95211426 -12.89935852 10.77922852 -12.92398071 9.57080078 C-12.9408493 8.4929834 -12.9577179 7.41516602 -12.97509766 6.3046875 C-12.99206696 5.35062012 -13.00903625 4.39655273 -13.02651978 3.41357422 C-12.79797728 -2.14101917 -4.15938157 0.01883138 0 0 Z " fill="#1F1F20" transform="translate(118.9375,88.75)"/>
<path d="M0 0 C2.625 2.75 2.625 2.75 4 6 C3.8125 9.3125 3.8125 9.3125 3 13 C2.9357831 14.45825874 2.87337244 15.91659782 2.8125 17.375 C2.15700552 23.54933512 -1.29603612 28.71935728 -5.99609375 32.68359375 C-11.44321412 36.26191649 -16.5511885 36 -23 36 C-23.33 23.46 -23.66 10.92 -24 -2 C-5.27952756 -3.2480315 -5.27952756 -3.2480315 0 0 Z " fill="#515151" transform="translate(143,100)"/>
<path d="M0 0 C1.65612305 -0.0309375 1.65612305 -0.0309375 3.34570312 -0.0625 C13.72412011 -0.11154155 22.85612228 1.40960033 30.65234375 8.74609375 C37.09121889 15.5628002 38.42240219 22.69572183 38.265625 31.8671875 C38.0625 34.25 38.0625 34.25 37.0625 37.25 C36.4025 37.25 35.7425 37.25 35.0625 37.25 C34.4025 39.23 33.7425 41.21 33.0625 43.25 C32.0625 40.25 32.0625 40.25 33.0625 37.25 C33.88164978 25.7346444 32.55289669 18.66533599 25.07421875 9.9140625 C19.69161594 5.46165707 13.24434174 5.9443363 6.625 6 C5.25118164 5.98839844 5.25118164 5.98839844 3.84960938 5.9765625 C-1.47010151 5.99183805 -5.90633621 6.50604776 -10.9375 8.25 C-11.5975 5.94 -12.2575 3.63 -12.9375 1.25 C-10.39101317 -1.29648683 -3.41663442 0.01546863 0 0 Z " fill="#080809" transform="translate(118.9375,88.75)"/>
<path d="M0 0 C1.04671875 -0.02578125 2.0934375 -0.0515625 3.171875 -0.078125 C9.34772874 0.58021474 12.97451432 4.52097695 16.80078125 9.0859375 C18.99433609 12.3614884 19.29016072 15.42803822 19.25 19.25 C19.26289063 20.22324219 19.27578125 21.19648437 19.2890625 22.19921875 C19.30969175 24.88445924 19.29441827 27.56516213 19.25 30.25 C18.26 30.58 17.27 30.91 16.25 31.25 C16.20101562 30.65574219 16.15203125 30.06148437 16.1015625 29.44921875 C15.67433295 24.71286362 15.12643873 20.00899209 14.375 15.3125 C14.23320312 14.41660156 14.09140625 13.52070312 13.9453125 12.59765625 C13.17320037 9.99069338 12.21792559 9.05124337 10.25 7.25 C10.25 6.59 10.25 5.93 10.25 5.25 C2.20075394 2.99056251 -5.45316995 3.05323723 -13.75 3.25 C-13.75 2.92 -13.75 2.59 -13.75 2.25 C-12.615625 2.105625 -11.48125 1.96125 -10.3125 1.8125 C-6.35392622 1.18746203 -4.21255405 0.06164713 0 0 Z " fill="#2D2E2F" transform="translate(132.75,94.75)"/>
<path d="M0 0 C0.33 0 0.66 0 1 0 C1 17.16 1 34.32 1 52 C7.9609375 52.0309375 7.9609375 52.0309375 15.0625 52.0625 C17.23791382 52.07615601 17.23791382 52.07615601 19.45727539 52.09008789 C21.19738892 52.09383423 21.19738892 52.09383423 22.97265625 52.09765625 C24.74008179 52.10551147 24.74008179 52.10551147 26.54321289 52.11352539 C30.09357576 51.99692685 33.49542884 51.5655059 37 51 C32.24551171 54.90547252 28.59651522 55.12682995 22.51953125 55.1328125 C21.27365234 55.13410156 20.02777344 55.13539063 18.74414062 55.13671875 C17.44669922 55.13285156 16.14925781 55.12898438 14.8125 55.125 C12.84893555 55.13080078 12.84893555 55.13080078 10.84570312 55.13671875 C8.98268555 55.13478516 8.98268555 55.13478516 7.08203125 55.1328125 C5.93968018 55.13168457 4.7973291 55.13055664 3.62036133 55.12939453 C1 55 1 55 0 54 C-0.09353163 52.31198015 -0.11744791 50.62004793 -0.11352539 48.92944336 C-0.11344986 47.84839828 -0.11337433 46.76735321 -0.11329651 45.65354919 C-0.10813522 44.4775264 -0.10297394 43.3015036 -0.09765625 42.08984375 C-0.0962413 40.89267227 -0.09482635 39.69550079 -0.09336853 38.46205139 C-0.08774979 34.62050934 -0.07519411 30.77902457 -0.0625 26.9375 C-0.05748741 24.34049563 -0.05292409 21.74349035 -0.04882812 19.14648438 C-0.03777427 12.76430321 -0.02101792 6.3821557 0 0 Z " fill="#595A5A" transform="translate(105,92)"/>
<path d="M0 0 C2.38367831 3.36519291 1.81311194 5.81539633 1.26000977 9.74023438 C0.8283598 13.49173865 0.89501706 17.22882167 0.9375 21 C0.94201172 21.77472656 0.94652344 22.54945312 0.95117188 23.34765625 C0.96280242 25.23180524 0.98073094 27.11591365 1 29 C0.34 29 -0.32 29 -1 29 C-0.72285156 30.01320312 -0.44570313 31.02640625 -0.16015625 32.0703125 C0.20588081 33.42183394 0.57175772 34.77339876 0.9375 36.125 C1.11990234 36.79015625 1.30230469 37.4553125 1.49023438 38.140625 C2.55082506 42.07445227 3.40362132 45.96973565 4 50 C-4.20657524 41.79342476 -4.19898179 23.26749632 -4.265625 12.3046875 C-3.97794012 9.80859813 -3.25406783 8.15978349 -2 6 C-1.67 6 -1.34 6 -1 6 C-0.67 4.02 -0.34 2.04 0 0 Z " fill="#2D2D2D" transform="translate(40,104)"/>
<path d="M0 0 C0.66 0.33 1.32 0.66 2 1 C2 13.54 2 26.08 2 39 C-1.33726972 34.55030704 -1.33726972 34.55030704 -1.0625 30.1875 C-0.86874897 24.17314497 -1.6952467 18.50632745 -2.66015625 12.578125 C-3.0184611 8.80562799 -2.79731648 5.69954847 -2 2 C-1.34 1.34 -0.68 0.68 0 0 Z " fill="#090A0A" transform="translate(117,98)"/>
<path d="M0 0 C2.94551711 3.37472103 3.96134485 6.64480363 5.125 10.9375 C5.45757812 12.14277344 5.79015625 13.34804687 6.1328125 14.58984375 C7.40309564 19.58514635 8.12312731 24.0051562 8.09765625 29.17578125 C8.09443359 30.33271484 8.09121094 31.48964844 8.08789062 32.68164062 C8.07951172 33.87982422 8.07113281 35.07800781 8.0625 36.3125 C8.05798828 37.53001953 8.05347656 38.74753906 8.04882812 40.00195312 C8.03706578 43.00135226 8.02062826 46.00065089 8 49 C7.34 49 6.68 49 6 49 C5.98541748 48.28569824 5.97083496 47.57139648 5.95581055 46.83544922 C5.58232137 23.82847894 5.58232137 23.82847894 -1 2 C-0.67 1.34 -0.34 0.68 0 0 Z " fill="#1F1F20" transform="translate(211,83)"/>
<path d="M0 0 C10.2787621 7.28857676 17.13078163 15.48317342 24 26 C24.60328125 26.89460938 25.2065625 27.78921875 25.828125 28.7109375 C26.40820312 29.84402344 26.40820312 29.84402344 27 31 C26.67 31.99 26.34 32.98 26 34 C25.69296143 33.51120361 25.38592285 33.02240723 25.06958008 32.51879883 C23.65729467 30.27903352 22.23500921 28.04578467 20.8125 25.8125 C20.32974609 25.04357422 19.84699219 24.27464844 19.34960938 23.48242188 C16.57886212 19.14964261 13.78116232 15.53373727 10 12 C8.9635504 10.80503458 7.94023566 9.59839337 6.9375 8.375 C4.81418741 5.84567932 2.67147604 3.95223249 0 2 C0 1.34 0 0.68 0 0 Z " fill="#252525" transform="translate(183,47)"/>
<path d="M0 0 C2.20770805 -0.08165496 4.41630425 -0.13948488 6.625 -0.1875 C7.85476562 -0.22230469 9.08453125 -0.25710937 10.3515625 -0.29296875 C14.99556377 0.07994356 18.17375499 1.43999572 21.71484375 4.46484375 C22.9375 5.9375 22.9375 5.9375 25 9 C24.62890625 11.19140625 24.62890625 11.19140625 24 13 C23.74347656 12.45730469 23.48695313 11.91460937 23.22265625 11.35546875 C21.02970485 7.25752926 19.30031383 4.63800911 14.8125 3.0625 C9.95210038 1.78603141 5.00590959 1.30307177 0 1 C0 0.67 0 0.34 0 0 Z " fill="#7B7C7C" transform="translate(119,98)"/>
<path d="M0 0 C4.93001941 1.20090216 8.20924455 2.09627948 11.625 6 C13 9 13 9 12 12 C11.34 12 10.68 12 10 12 C8.66666667 10 7.33333333 8 6 6 C4.02329393 4.24577228 4.02329393 4.24577228 2 3 C1.01 2.34 0.02 1.68 -1 1 C-0.67 0.67 -0.34 0.34 0 0 Z " fill="#424243" transform="translate(134,97)"/>
<path d="M0 0 C3.64121479 0.01742208 4.62970143 0.23393767 7.8125 2.3125 C8.451875 2.9725 9.09125 3.6325 9.75 4.3125 C8.75871094 4.14878906 7.76742187 3.98507813 6.74609375 3.81640625 C2.75645421 3.24645774 -1.15621941 3.21432495 -5.1875 3.25 C-6.21327148 3.25676758 -6.21327148 3.25676758 -7.25976562 3.26367188 C-8.92321604 3.2753044 -10.5866205 3.29323306 -12.25 3.3125 C-12.25 2.9825 -12.25 2.6525 -12.25 2.3125 C-11.115625 2.168125 -9.98125 2.02375 -8.8125 1.875 C-5.30838689 1.32171898 -3.58114601 0.11265194 0 0 Z " fill="#303131" transform="translate(131.25,94.6875)"/>
<path d="M0 0 C5.30741455 0.39285652 7.45060719 1.84985809 10.9375 5.8125 C11.73027344 6.68519531 12.52304688 7.55789062 13.33984375 8.45703125 C15 11 15 11 14.75390625 13.32421875 C14.50511719 13.87722656 14.25632813 14.43023437 14 15 C13.773125 14.4225 13.54625 13.845 13.3125 13.25 C11.67718931 10.44661024 9.52773272 8.99557846 7 7 C7 6.34 7 5.68 7 5 C6.34 5 5.68 5 5 5 C5 4.34 5 3.68 5 3 C2.525 2.01 2.525 2.01 0 1 C0 0.67 0 0.34 0 0 Z " fill="#1E1E1F" transform="translate(136,95)"/>
<path d="M0 0 C0.66 0 1.32 0 2 0 C2.69951063 2.413762 3.38483919 4.83010234 4.0625 7.25 C4.26166016 7.93191406 4.46082031 8.61382812 4.66601562 9.31640625 C6.40009269 15.58342161 6.40009269 15.58342161 5 19 C2.12059087 12.5849443 0.4535179 7.02952752 0 0 Z " fill="#3D3D3E" transform="translate(39,133)"/>
<path d="M0 0 C2.3698272 3.34563839 1.91964284 5.90588247 1.29296875 9.828125 C0.83397597 13.23079146 0.9387627 16.57071119 1 20 C0.34 20.33 -0.32 20.66 -1 21 C-1.06058594 20.24074219 -1.12117188 19.48148438 -1.18359375 18.69921875 C-1.26738281 17.70535156 -1.35117187 16.71148437 -1.4375 15.6875 C-1.51871094 14.70136719 -1.59992187 13.71523437 -1.68359375 12.69921875 C-1.91812559 9.90624401 -1.91812559 9.90624401 -3 7 C-2.34 6.67 -1.68 6.34 -1 6 C-0.34227572 2.97065509 -0.34227572 2.97065509 0 0 Z " fill="#252627" transform="translate(40,104)"/>
<path d="M0 0 C8.58 0 17.16 0 26 0 C26 0.33 26 0.66 26 1 C24.70964844 1.04898438 23.41929687 1.09796875 22.08984375 1.1484375 C20.37237653 1.22351803 18.65492959 1.29906354 16.9375 1.375 C16.08994141 1.4059375 15.24238281 1.436875 14.36914062 1.46875 C9.26321829 1.70531783 4.85208127 2.38044506 0 4 C0 2.68 0 1.36 0 0 Z " fill="#121313" transform="translate(108,93)"/>
<path d="M0 0 C0.33 0 0.66 0 1 0 C1.97299156 4.85729645 2.12038805 9.4500625 2.0625 14.375 C2.05798828 15.11105469 2.05347656 15.84710938 2.04882812 16.60546875 C2.03715142 18.40368158 2.01922011 20.20185197 2 22 C-1.77559785 15.41967233 -1.45063825 7.25319125 0 0 Z " fill="#0B0C0C" transform="translate(115,100)"/>
<path d="M0 0 C2.52407213 3.01328835 3.72125623 5.65319255 4.75 9.4375 C5.01296875 10.36433594 5.2759375 11.29117188 5.546875 12.24609375 C6.02668413 15.16217513 5.76122921 17.16596422 5 20 C4.67 20 4.34 20 4 20 C3.89042969 19.28714844 3.78085938 18.57429688 3.66796875 17.83984375 C2.57946754 11.21943042 2.57946754 11.21943042 0.3125 4.9375 C-0.120625 3.968125 -0.55375 2.99875 -1 2 C-0.67 1.34 -0.34 0.68 0 0 Z " fill="#252526" transform="translate(211,83)"/>
<path d="M0 0 C2.09350689 3.4019487 2.17942163 6.05272412 2 10 C1.01 10.33 0.02 10.66 -1 11 C-1.0270043 9.54176788 -1.04639787 8.08339325 -1.0625 6.625 C-1.07410156 5.81289062 -1.08570313 5.00078125 -1.09765625 4.1640625 C-1 2 -1 2 0 0 Z " fill="#686869" transform="translate(144,109)"/>
<path d="M0 0 C0.66 0.33 1.32 0.66 2 1 C0.68 3.64 -0.64 6.28 -2 9 C-2.99 9 -3.98 9 -5 9 C-4.67 7.35 -4.34 5.7 -4 4 C-3.34 4.33 -2.68 4.66 -2 5 C-1.34 3.35 -0.68 1.7 0 0 Z " fill="#151516" transform="translate(154,126)"/>
<path d="M0 0 C5.06122449 2.53061224 5.06122449 2.53061224 7 6 C6.67 7.32 6.34 8.64 6 10 C4.02 6.7 2.04 3.4 0 0 Z " fill="#999A9A" transform="translate(137,101)"/>
</svg>
